<?xml version="1.0" encoding="utf-8"?>
<!-- Generator: Adobe Illustrator 18.1.1, SVG Export Plug-In . SVG Version: 6.00 Build 0)  -->
<svg version="1.1" id="Layer_1" xmlns="http://www.w3.org/2000/svg" xmlns:xlink="http://www.w3.org/1999/xlink" x="0px" y="0px"
	 width="612px" height="144px" viewBox="0 0 612 144" enable-background="new 0 0 612 144" xml:space="preserve">
<g id="mQNvyZ_1_" display="none">
	
		<image display="inline" overflow="visible" width="1024" height="1024" id="mQNvyZ" xlink:href="E03376F952C975E2.jpg"  transform="matrix(0.72 0 0 0.72 -10.495 -512.1638)">
	</image>
</g>
<polygon fill="none" stroke="#000000" stroke-width="0.25" stroke-miterlimit="10" points="319.2,9.6 319.2,33.3 343.8,33.3 
	343.8,131.4 252.5,131.4 252.5,9.6 "/>
<rect x="282.3" y="65.3" fill="#FFFFFF" stroke="#000000" stroke-width="0.25" stroke-miterlimit="10" width="105.5" height="44.8"/>
<polygon stroke="#000000" stroke-miterlimit="10" points="330.4,98.7 338.5,98.7 386.1,65.7 284,65.7 "/>
<rect x="260.1" y="95.9" width="43.3" height="27"/>
<circle fill="#FFFFFF" cx="282.3" cy="110.1" r="5.7"/>
<circle fill="#231F20" cx="265.8" cy="21.7" r="5.7"/>
<polygon stroke="#000000" stroke-miterlimit="10" points="319.9,10.8 342.6,32.5 319.9,32.5 "/>
<rect x="235" y="36" width="9.7" height="2.3"/>
<polygon fill="none" stroke="#000000" stroke-width="0.25" stroke-miterlimit="10" points="235.3,38.2 235.3,112.4 239.7,117.8 
	244.4,112.4 244.4,38.2 "/>
<polygon points="239.8,117.5 237.9,115.2 241.8,115.2 "/>
<line fill="#FFFFFF" stroke="#231F20" stroke-width="0.25" stroke-miterlimit="10" x1="235.3" y1="112.4" x2="244.4" y2="112.4"/>
</svg>
