<?xml version="1.0" encoding="utf-8"?>
<!-- Generator: Adobe Illustrator 18.1.0, SVG Export Plug-In . SVG Version: 6.00 Build 0)  -->
<svg version="1.1" id="Layer_1" xmlns="http://www.w3.org/2000/svg" xmlns:xlink="http://www.w3.org/1999/xlink" x="0px" y="0px"
	 viewBox="0 103.8 1820 306" enable-background="new 0 103.8 1820 306" xml:space="preserve">
<g>
	<path d="M32.1,317.9V187.2h27.7V295h47.5v22.9H32.1z"/>
	<path d="M204.5,317.9l-8.9-31.1h-45l-9,31.1h-28L156,186.7h33.9l42.6,131.2H204.5z M189.1,263.5l-8.4-28.6
		c-0.4-1.1-0.9-2.8-1.6-5.3c-0.7-2.4-1.5-5.1-2.3-8.1c-0.8-2.9-1.6-5.9-2.3-8.9c-0.7-3-1.2-5.5-1.5-7.6c-0.2,1.3-0.6,2.9-0.9,4.6
		c-0.4,1.8-0.8,3.7-1.3,5.7c-0.5,2-1,4-1.6,6c-0.5,2-1,3.9-1.5,5.7c-0.5,1.8-0.9,3.4-1.3,4.7c-0.4,1.4-0.7,2.4-0.8,3l-8.3,28.6
		H189.1z"/>
	<path d="M346.1,187.2v84.5c0,6.8-1,13.1-3.1,18.9c-2.1,5.8-5.2,10.9-9.4,15.2c-4.2,4.3-9.5,7.7-15.8,10.1
		c-6.3,2.4-13.7,3.7-22.2,3.7c-8,0-15.1-1.1-21.3-3.4c-6.2-2.3-11.3-5.6-15.5-9.8c-4.1-4.2-7.3-9.3-9.4-15.2
		c-2.1-5.9-3.2-12.5-3.2-19.8v-84.2h27.6v82.1c0,4.8,0.5,9,1.4,12.4c1,3.4,2.4,6.2,4.2,8.4c1.9,2.2,4.2,3.8,7,4.8
		c2.8,1,6.1,1.5,9.8,1.5c7.8,0,13.4-2.3,16.9-6.8c3.5-4.5,5.2-11.3,5.2-20.5v-81.9H346.1z"/>
	<path d="M475.3,244.5h51.8v67.7c-3.5,1.1-6.9,2.2-10.5,3.1c-3.5,0.9-7.2,1.7-10.9,2.3c-3.8,0.6-7.7,1.1-11.9,1.5
		c-4.1,0.4-8.5,0.5-13.2,0.5c-9.8,0-18.4-1.4-26-4.3c-7.5-2.9-13.9-7.2-19-12.9c-5.2-5.7-9.1-12.7-11.8-21.1c-2.7-8.4-4-18-4-29
		c0-10.2,1.5-19.5,4.5-27.8c3-8.3,7.4-15.3,13.2-21.1c5.8-5.8,13-10.3,21.4-13.4c8.5-3.1,18.2-4.7,29.2-4.7c7,0,13.8,0.7,20.5,2.2
		c6.7,1.5,12.8,3.4,18.3,5.8l-9.2,22.2c-4.1-2-8.6-3.7-13.7-5.1c-5.1-1.4-10.4-2.1-16-2.1c-6.1,0-11.5,1.1-16.4,3.2
		c-4.9,2.1-9,5.1-12.5,9c-3.5,3.9-6.1,8.5-8,14c-1.8,5.5-2.8,11.6-2.8,18.3c0,6.4,0.6,12.3,1.9,17.6c1.3,5.3,3.3,9.9,6,13.8
		c2.7,3.9,6.3,6.9,10.6,9c4.3,2.1,9.5,3.2,15.5,3.2c3.9,0,7.3-0.2,10-0.5c2.7-0.4,5.3-0.8,7.6-1.3v-27.3h-24.8V244.5z"/>
	<path d="M632.7,317.9l-8.9-31.1h-45l-9,31.1h-28l42.4-131.2h33.9l42.6,131.2H632.7z M617.3,263.5l-8.4-28.6
		c-0.4-1.1-0.9-2.8-1.6-5.3c-0.7-2.4-1.5-5.1-2.3-8.1c-0.8-2.9-1.6-5.9-2.3-8.9c-0.7-3-1.2-5.5-1.5-7.6c-0.2,1.3-0.6,2.9-0.9,4.6
		c-0.4,1.8-0.8,3.7-1.3,5.7c-0.5,2-1,4-1.6,6c-0.5,2-1,3.9-1.5,5.7c-0.5,1.8-0.9,3.4-1.3,4.7c-0.4,1.4-0.7,2.4-0.8,3l-8.3,28.6
		H617.3z"/>
	<path d="M704.8,267.7v50.1h-27.7V187.2h35.7c16.7,0,29.1,3.2,37.1,9.7c8,6.5,12,16.3,12,29.4c0,4.5-0.6,8.5-1.8,12.2
		c-1.2,3.6-2.8,6.9-4.8,9.7c-2,2.8-4.3,5.3-6.9,7.4c-2.6,2.1-5.3,3.9-8.2,5.3c6.6,10.6,12.5,20.1,17.8,28.4
		c2.3,3.6,4.5,7.1,6.6,10.5c2.1,3.4,4,6.4,5.7,9.1c1.7,2.7,3,4.8,4.1,6.4l1.5,2.5h-30.7l-28.3-50.1H704.8z M704.8,245.2h7.5
		c7.7,0,13.2-1.5,16.5-4.6c3.3-3.1,5-7.6,5-13.5c0-6.2-1.8-10.6-5.4-13.2c-3.6-2.6-9.1-3.9-16.6-3.9h-7.1V245.2z"/>
	<path d="M847.9,208.4c-5.3,0-10,1-14.1,3.1c-4.1,2.1-7.5,5-10.3,8.8c-2.8,3.8-4.9,8.5-6.3,14c-1.4,5.5-2.1,11.7-2.1,18.5
		c0,7,0.6,13.2,1.9,18.6c1.3,5.4,3.2,10,5.9,13.7c2.7,3.7,6,6.6,10.2,8.5c4.1,1.9,9.1,2.9,14.8,2.9c5.3,0,10.6-0.6,15.9-1.8
		c5.3-1.2,11.1-2.9,17.4-5.1v23.2c-2.9,1.2-5.7,2.2-8.5,3c-2.8,0.8-5.7,1.5-8.6,2.1c-2.9,0.5-5.9,0.9-9,1.2
		c-3.1,0.3-6.4,0.4-9.9,0.4c-10.1,0-18.8-1.6-26.2-4.8c-7.4-3.2-13.5-7.7-18.3-13.6c-4.8-5.8-8.4-12.9-10.7-21.1s-3.5-17.4-3.5-27.4
		c0-9.9,1.3-19,4-27.2c2.7-8.3,6.6-15.4,11.8-21.3c5.2-6,11.6-10.6,19.2-13.9c7.6-3.3,16.4-5,26.3-5c6.5,0,13,0.8,19.5,2.5
		c6.5,1.6,12.8,3.9,18.7,6.7l-8.9,22.5c-4.9-2.3-9.8-4.3-14.7-6.1C857.5,209.3,852.6,208.4,847.9,208.4z"/>
	<path d="M957.9,317.9h-59.4v-15.7l15.9-7.3v-84.5l-15.9-7.3v-15.7h59.4V203l-15.9,7.3v84.5l15.9,7.3V317.9z"/>
	<path d="M1054.7,317.9l-8.9-31.1h-45l-9,31.1h-28l42.4-131.2h33.9l42.6,131.2H1054.7z M1039.4,263.5l-8.4-28.6
		c-0.4-1.1-0.9-2.8-1.6-5.3c-0.7-2.4-1.5-5.1-2.3-8.1c-0.8-2.9-1.6-5.9-2.3-8.9c-0.7-3-1.2-5.5-1.5-7.6c-0.2,1.3-0.6,2.9-0.9,4.6
		c-0.4,1.8-0.8,3.7-1.3,5.7c-0.5,2-1,4-1.6,6c-0.5,2-1,3.9-1.5,5.7c-0.5,1.8-0.9,3.4-1.3,4.7c-0.4,1.4-0.7,2.4-0.8,3l-8.3,28.6
		H1039.4z"/>
	<path d="M1247.7,251.3c0,11-1.5,20.7-4.5,29c-3,8.3-7.4,15.3-13,20.8c-5.7,5.6-12.7,9.8-20.9,12.6c-8.3,2.8-17.6,4.2-28.2,4.2
		h-34.4V187.2h38.2c9.6,0,18.2,1.4,26,4.1c7.7,2.7,14.3,6.8,19.8,12.2c5.5,5.4,9.7,12.1,12.6,20.1
		C1246.3,231.6,1247.7,240.8,1247.7,251.3z M1219.7,252c0-7.3-0.7-13.5-2.2-18.8c-1.5-5.3-3.6-9.6-6.3-13.1c-2.8-3.5-6.2-6-10.2-7.7
		c-4-1.7-8.6-2.5-13.8-2.5h-12.8V295h10.2c11.7,0,20.4-3.6,26.3-10.7C1216.8,277.1,1219.7,266.4,1219.7,252z"/>
	<path d="M1350.1,317.9h-75.2V187.2h75.2v22.7h-47.5v28.7h44.2v22.7h-44.2V295h47.5V317.9z"/>
	<path d="M1448.9,281.6c0,5.8-1,11.1-3,15.8c-2,4.7-4.9,8.7-8.8,12c-3.8,3.3-8.5,5.9-14.1,7.6c-5.6,1.8-12,2.7-19.2,2.7
		c-6.3,0-12.4-0.7-18.3-2c-5.9-1.3-11.3-3.3-16.3-5.9v-25.7c2.9,1.4,5.7,2.7,8.7,4c2.9,1.3,5.9,2.4,8.9,3.4c3,1,6,1.8,9,2.4
		c3,0.6,6,0.9,9,0.9c3,0,5.6-0.3,7.8-1c2.2-0.7,3.9-1.6,5.3-2.9c1.3-1.2,2.3-2.7,2.9-4.4c0.6-1.7,0.9-3.6,0.9-5.6
		c0-2.4-0.5-4.6-1.6-6.5c-1-1.9-2.5-3.6-4.4-5.3c-1.9-1.6-4.1-3.2-6.8-4.8c-2.7-1.5-5.6-3.2-8.9-4.9c-2.7-1.4-5.8-3.2-9.2-5.2
		c-3.4-2-6.6-4.5-9.6-7.6c-3-3-5.5-6.6-7.5-10.9c-2-4.3-3-9.4-3-15.3c0-5.8,1-11.1,2.9-15.7c1.9-4.6,4.7-8.5,8.3-11.7
		c3.6-3.2,7.9-5.6,13-7.3c5.1-1.7,10.8-2.5,17.1-2.5c3.2,0,6.2,0.2,9.2,0.6c3,0.4,6,1,8.9,1.8c2.9,0.8,5.9,1.7,8.9,2.9
		c3,1.1,6,2.4,9.2,3.9l-8.9,21.5c-2.7-1.3-5.2-2.4-7.5-3.3c-2.3-1-4.6-1.8-6.8-2.4c-2.2-0.7-4.4-1.1-6.5-1.5
		c-2.1-0.3-4.2-0.5-6.4-0.5c-4.6,0-8.2,1.2-10.7,3.7c-2.5,2.5-3.7,5.8-3.7,9.9c0,2.2,0.4,4.2,1.1,5.9c0.7,1.7,1.9,3.3,3.6,4.8
		c1.6,1.5,3.8,3,6.3,4.6c2.6,1.5,5.7,3.3,9.4,5.3c4.5,2.4,8.6,4.8,12.3,7.3c3.8,2.5,7,5.2,9.7,8.2c2.7,3,4.8,6.4,6.3,10.2
		C1448.1,272,1448.9,276.5,1448.9,281.6z"/>
	<path d="M1522.1,317.9h-59.4v-15.7l15.9-7.3v-84.5l-15.9-7.3v-15.7h59.4V203l-15.9,7.3v84.5l15.9,7.3V317.9z"/>
	<path d="M1592.2,244.5h51.8v67.7c-3.5,1.1-6.9,2.2-10.5,3.1c-3.5,0.9-7.2,1.7-10.9,2.3c-3.8,0.6-7.7,1.1-11.9,1.5
		c-4.1,0.4-8.5,0.5-13.2,0.5c-9.8,0-18.4-1.4-26-4.3c-7.5-2.9-13.9-7.2-19-12.9c-5.2-5.7-9.1-12.7-11.8-21.1c-2.7-8.4-4-18-4-29
		c0-10.2,1.5-19.5,4.5-27.8c3-8.3,7.4-15.3,13.2-21.1c5.8-5.8,13-10.3,21.4-13.4c8.5-3.1,18.2-4.7,29.2-4.7c7,0,13.8,0.7,20.5,2.2
		c6.7,1.5,12.8,3.4,18.3,5.8l-9.2,22.2c-4.1-2-8.6-3.7-13.7-5.1c-5.1-1.4-10.4-2.1-16-2.1c-6.1,0-11.5,1.1-16.4,3.2
		c-4.9,2.1-9,5.1-12.5,9c-3.5,3.9-6.1,8.5-8,14c-1.8,5.5-2.8,11.6-2.8,18.3c0,6.4,0.6,12.3,1.9,17.6c1.3,5.3,3.3,9.9,6,13.8
		c2.7,3.9,6.3,6.9,10.6,9c4.3,2.1,9.5,3.2,15.5,3.2c3.9,0,7.3-0.2,10-0.5c2.7-0.4,5.3-0.8,7.6-1.3v-27.3h-24.8V244.5z"/>
	<path d="M1785.5,317.9h-35.1L1699,219h-0.8c0.4,4.6,0.7,9.1,0.9,13.7c0.2,3.9,0.4,7.9,0.6,12.2c0.1,4.3,0.2,8.1,0.2,11.5v61.5
		h-24.8V187.2h34.9l51.3,97.8h0.5c-0.2-4.5-0.4-9-0.6-13.4c-0.1-1.9-0.1-3.9-0.2-5.9c-0.1-2-0.2-4-0.2-6c-0.1-2-0.1-3.9-0.1-5.8
		c0-1.8,0-3.5,0-5v-61.8h24.8V317.9z"/>
</g>
</svg>
