<?xml version="1.0" encoding="utf-8"?>
<!-- Generator: Adobe Illustrator 21.1.0, SVG Export Plug-In . SVG Version: 6.00 Build 0)  -->
<svg version="1.1" id="Layer_1" xmlns="http://www.w3.org/2000/svg" xmlns:xlink="http://www.w3.org/1999/xlink" x="0px" y="0px"
	 viewBox="0 0 612 144" style="enable-background:new 0 0 612 144;" xml:space="preserve">
<style type="text/css">
	.st0{fill:#FFFFFF;}
</style>
<g>
	<path class="st0" d="M124.3,127.6c0,0-8.1-0.2-9.6-12.3c-1.5-12.2,43.8-93.9,36.1-93.9c-7.1,0-58,77.9-66.1,90.3
		c-0.3,0.5-0.6,1.2-0.9,1.6c-0.1-0.1-0.1-0.1-0.2-0.1v0.1v-0.1c-6.8-2.2-11.1-7.3-12.3-12c-1.9-7.6,14.8-31.6,23.9-56.1
		c8.2-22,9.7-27.8,3.2-28.8c-21.6,0-28.8,26.1-22.3,40.9c-4.1-1.5-18.3-10.6-9-29.5c6.5-13,25.9-18.1,38.1-12.3
		c11.3,5.5,6.4,19.5,1.7,35.4c-3.1,10.7-9,27.7-14.2,41.7c48.1-74.3,60.2-82,71.6-82C183.1,10.5,124.3,127.6,124.3,127.6z"/>
	<path class="st0" d="M190,105.1c3.5,7.3,15.9-16,19.6-23.3l1.9,0.6c-3.2,6.3-15.3,31.6-24.7,31.6c-7.4,0-11.7-5.9-7.6-23
		c-6.7,12.3-14.3,22.3-18.4,22.3c-5.5,0-15.6-1.3-9.3-21.4c6.3-20.1,19.9-34.8,26.2-34.8c6.4,0,9.5,3.8,10.1,9.8
		c3.1-5.7,5.6-7.7,6.9-8.1c2.4-0.8,7.2,0.5,9.1,2.8C203.9,61.8,185.8,96.1,190,105.1z M182.1,65c-6.7,0.3-26.3,40.3-18.1,40.3
		c6,0,14.8-17.5,19.1-26.9c1.3-3.6,2.5-6.6,3.7-9C186.4,67.7,185.2,64.9,182.1,65z"/>
	<path class="st0" d="M221.5,51.2c6-13.8,12-25.6,14.3-27.1c3-1.9,9.4,0.3,12.4,2.4c-3.8,6.4-8.6,15.6-12.9,24.9
		c4.2,0.1,7.6,0,8.4,0c0,0-0.4,4.1-2.5,4.5c-0.6,0.1-3.9,0.2-8,0.2c-5.5,12.2-9.9,24.3-12.2,30.6c-3.8,10.3-7,22.4-3.3,22.4
		c3.8,0,14-8.6,23.6-27.2l1.9,0.6C232,104.6,220.8,114,214.9,114c-4,0-15.1-0.7-9-21.5c2.5-8.3,8.9-25.9,13.4-36.5
		c-5-0.1-8.8-0.1-8.8-0.1s0.9-3.5,2.8-4.5C213.9,51.1,217.2,51.2,221.5,51.2z"/>
	<path class="st0" d="M272.6,73.8c7.6-27,29.7-61.7,41.6-61.7c34.4,0,19.5,35.4,19.5,35.4s-10.6-1.7-11.9-5.2
		c-2.2-5.4,6.2-24.6,0.3-24.6c-3.6,0-27.6,34.5-36.4,65.5c-5.2,18-3.9,29.5,5.1,29.5c7.8,0,20.9-26.2,24.3-33.1
		c-3.7,0.9-10.6,3.7-13.5,2.2c-4.3-2.2-3.3-7.8-3.3-7.8s25.3-0.1,28,7.8c2.8,7.9-12.2,38.9-14,51.8c-5.3-1.7-15.1-2.9-15.1-10.6
		c0-3.9,3.1-11,6.9-18.2c-5.4,7.7-10.5,12.4-14.5,12.4C268.1,117.1,265.4,99.3,272.6,73.8z"/>
	<path class="st0" d="M370,105.1c3.5,7.3,15.9-16,19.6-23.3l1.9,0.6c-3.2,6.3-15.3,31.6-24.7,31.6c-7.4,0-11.7-5.9-7.6-23
		c-6.7,12.3-14.3,22.3-18.4,22.3c-5.5,0-15.6-1.3-9.3-21.4c6.3-20.1,19.9-34.8,26.2-34.8c6.4,0,9.5,3.8,10.1,9.8
		c3.1-5.7,5.6-7.7,6.9-8.1c2.4-0.8,7.2,0.5,9.1,2.8C383.9,61.8,365.7,96.1,370,105.1z M362.1,65c-6.7,0.3-26.3,40.3-18.1,40.3
		c6,0,14.8-17.5,19.1-26.9c1.3-3.6,2.5-6.6,3.7-9C366.3,67.7,365.1,64.9,362.1,65z"/>
	<path class="st0" d="M407.1,109.8c6.1,0,15.6-18.9,20.4-28l1.9,0.6c-4.3,8.4-16.3,31.8-23.7,31.8c-7.6,0-12.1-5.1-10.2-12
		c3.5-12.9,11.7-29.9,11.7-34.8c-0.1-3.7-2.5-4.8-4.9-5.8l-11,21.2l-1.9-0.6l11.1-21.4c-1.8-0.9-3.3-2.3-3.2-5.5
		c0.1-4.7,2.7-9,5.7-9.5c2.9-0.6,6.3,3,6.3,3s-7.6,6.5-3.6,10.7c4,4.2,8.7,3.7,11.8,8.5C421.6,74.5,400.7,109.8,407.1,109.8z"/>
	<path class="st0" d="M449.6,76.9c-0.6-1.8,7.1-14.2,4.1-14.2c-3.8,0-13.3,14.6-17.1,26c-4.7,14.4,0.4,18.9,5.4,18.9
		c5,0,16.4-13.1,23.6-26.9l1.9,0.6c-8.7,16.7-21.4,31.7-29.7,31.7c-5.6,0-19-5.5-12.7-25.5c6.3-20,17.2-31.5,23.4-31.5
		c6.3,0,15.2,5.3,7.1,21.8C455.7,77.9,450.1,78.9,449.6,76.9z"/>
	<path class="st0" d="M474,106.7c6.2,0,14.7-17.8,18.5-25.2l1.9,0.6c-3.2,6.3-16.3,30.8-22.9,32c-3.7,0.7-12-0.5-13.1-5.4
		c-1.1-4.7,0.7-11.7,4.6-24c6.2-19.7,10.3-24.5,12.6-25.3c2.4-0.9,9.1,0,10.8,2.3C486.4,61.8,467.8,106.7,474,106.7z M484.4,51.8
		c-9-2.9-0.8-17.2,5.6-14.9C498,39.6,493.4,54.7,484.4,51.8z"/>
	<path class="st0" d="M526.4,105.1c3.5,7.3,15.9-16,19.6-23.3l1.9,0.6c-3.2,6.3-15.3,31.6-24.7,31.6c-7.4,0-11.7-5.9-7.6-23
		c-6.7,12.3-14.3,22.3-18.4,22.3c-5.5,0-15.6-1.3-9.3-21.4c6.3-20.1,19.9-34.8,26.2-34.8c6.4,0,9.5,3.8,10.1,9.8
		c3.1-5.7,5.6-7.7,6.9-8.1c2.4-0.8,7.2,0.5,9.1,2.8C540.3,61.8,522.2,96.1,526.4,105.1z M518.5,65c-6.7,0.3-26.3,40.3-18.1,40.3
		c6,0,14.8-17.5,19.1-26.9c1.3-3.6,2.5-6.6,3.7-9C522.8,67.7,521.6,64.9,518.5,65z"/>
</g>
</svg>
